<svg width="496" height="496" viewBox="0 0 496 496" fill="none" xmlns="http://www.w3.org/2000/svg">
<g clip-path="url(#clip0)">
<path d="M248 304C225.945 304 208 321.945 208 344C208 366.055 225.945 384 248 384C270.055 384 288 366.055 288 344C288 321.945 270.055 304 248 304ZM248 368C234.77 368 224 357.23 224 344C224 330.77 234.77 320 248 320C261.23 320 272 330.77 272 344C272 357.23 261.23 368 248 368Z" fill="#1A4DC7"/>
<path d="M240 32H304V48H240V32Z" fill="#1A4DC7"/>
<path d="M240 64H304V80H240V64Z" fill="#1A4DC7"/>
<path d="M192 96H304V112H192V96Z" fill="#1A4DC7"/>
<path d="M192 128H304V144H192V128Z" fill="#1A4DC7"/>
<path d="M192 160H304V176H192V160Z" fill="#1A4DC7"/>
<path d="M496 256V192H384V256H432V336H336V322.23L316.359 315.68L325.617 297.168L294.832 266.383L276.312 275.648L269.77 256H256V208H336V112H432V156.688L413.656 138.344L402.344 149.656L440 187.312L477.656 149.656L466.344 138.344L448 156.688V96H336V0H212.688L160 52.6875V96H48V156.688L29.6562 138.344L18.3438 149.656L56 187.312L93.6562 149.656L82.3438 138.344L64 156.688V112H160V208H240V256H226.23L219.688 275.648L201.168 266.383L170.383 297.168L179.641 315.68L160 322.23V336H64V256H112V192H0V256H48V385.137C34.2305 388.711 24 401.137 24 416C24 433.648 38.3516 448 56 448C73.6484 448 88 433.648 88 416C88 401.137 77.7695 388.711 64 385.137V352H112V449.473C102.711 452.785 96 461.586 96 472C96 485.23 106.77 496 120 496C133.23 496 144 485.23 144 472C144 461.586 137.289 452.785 128 449.473V352H160V365.77L179.641 372.32L170.383 390.832L201.168 421.617L219.688 412.352L226.23 432H269.762L276.305 412.352L294.824 421.617L325.609 390.832L316.352 372.32L336 365.77V352H368V449.473C358.711 452.785 352 461.586 352 472C352 485.23 362.77 496 376 496C389.23 496 400 485.23 400 472C400 461.586 393.289 452.785 384 449.473V352H432V385.137C418.23 388.711 408 401.137 408 416C408 433.648 422.352 448 440 448C457.648 448 472 433.648 472 416C472 401.137 461.77 388.711 448 385.137V256H496ZM208 27.3125V48H187.312L208 27.3125ZM176 64H224V16H320V192H176V64ZM16 208H96V240H16V208ZM72 416C72 424.824 64.8242 432 56 432C47.1758 432 40 424.824 40 416C40 407.176 47.1758 400 56 400C64.8242 400 72 407.176 72 416ZM120 480C115.586 480 112 476.406 112 472C112 467.594 115.586 464 120 464C124.414 464 128 467.594 128 472C128 476.406 124.414 480 120 480ZM320 354.23L301.648 360.352L300.297 363.879C299.895 364.902 299.496 365.922 299.055 366.91L297.504 370.375L306.152 387.672L291.68 402.145L274.383 393.496L270.922 395.047C269.938 395.488 268.938 395.887 267.922 396.273L264.359 397.617L258.23 416H237.762L231.633 397.617L228.07 396.273C227.055 395.887 226.055 395.488 225.07 395.047L221.609 393.496L204.312 402.145L189.84 387.672L198.488 370.375L196.938 366.91C196.488 365.91 196.098 364.902 195.695 363.879L194.344 360.352L176 354.23V333.762L194.352 327.641L195.703 324.113C196.105 323.09 196.504 322.07 196.945 321.078L198.496 317.617L189.848 300.32L204.32 285.848L221.617 294.496L225.078 292.945C226.062 292.504 227.062 292.105 228.078 291.719L231.641 290.375L237.77 272H258.238L264.367 290.383L267.93 291.727C268.945 292.113 269.945 292.512 270.93 292.953L274.391 294.504L291.688 285.855L306.16 300.328L297.512 317.625L299.062 321.09C299.512 322.09 299.902 323.098 300.305 324.121L301.656 327.648L320 333.77V354.23ZM376 480C371.586 480 368 476.406 368 472C368 467.594 371.586 464 376 464C380.414 464 384 467.594 384 472C384 476.406 380.414 480 376 480ZM456 416C456 424.824 448.824 432 440 432C431.176 432 424 424.824 424 416C424 407.176 431.176 400 440 400C448.824 400 456 407.176 456 416ZM400 208H480V240H400V208Z" fill="#1A4DC7"/>
</g>
<defs>
<clipPath id="clip0">
<rect width="496" height="496" fill="white"/>
</clipPath>
</defs>
</svg>
