<svg width="513" height="512" viewBox="0 0 513 512" fill="none" xmlns="http://www.w3.org/2000/svg">
<path d="M128.717 136C133.135 136 136.717 132.418 136.717 128C136.717 123.582 133.135 120 128.717 120C124.299 120 120.717 123.582 120.717 128C120.717 132.418 124.299 136 128.717 136Z" fill="#0561A6"/>
<path d="M192.717 136C197.135 136 200.717 132.418 200.717 128C200.717 123.582 197.135 120 192.717 120C188.299 120 184.717 123.582 184.717 128C184.717 132.418 188.299 136 192.717 136Z" fill="#0561A6"/>
<path d="M191.028 165.264L191.868 163.576L177.556 156.416L176.716 158.112C173.668 164.208 167.54 168 160.716 168C153.892 168 147.764 164.208 144.716 158.112L143.876 156.424L129.564 163.584L130.404 165.264C136.18 176.824 147.796 184 160.716 184C173.636 184 185.252 176.824 191.028 165.264V165.264Z" fill="#0561A6"/>
<path d="M504.717 120V104C504.717 95.176 497.541 88 488.717 88H267.877C276.141 78.952 280.717 67.352 280.717 55.032C280.717 29.096 259.613 8 233.685 8H176.717C150.061 8 123.629 16.528 101.989 32.08C76.7888 33.496 56.7168 54.456 56.7168 80.296C56.7168 86.432 57.8768 92.432 60.1488 98.128L69.9648 122.664C62.1408 126.624 56.7168 134.648 56.7168 144C56.7168 157.232 67.4848 168 80.7168 168H92.9168C98.9728 185.064 111.237 199.192 127.037 207.592L122.645 229.552C122.101 232.288 120.125 234.576 117.493 235.512C52.4288 258.752 8.7168 320.784 8.7168 389.872V504H304.717H312.717H376.717C385.541 504 392.717 496.824 392.717 488V472C392.717 463.176 385.541 456 376.717 456H360.717V440H488.717C497.541 440 504.717 432.824 504.717 424V408C504.717 399.176 497.541 392 488.717 392V136C497.541 136 504.717 128.824 504.717 120V120ZM488.717 120H240.717H232.717V104H488.717V120ZM248.717 144C248.717 148.408 245.133 152 240.717 152H232.245C232.541 149.368 232.717 146.704 232.717 144V136H240.717C245.133 136 248.717 139.592 248.717 144ZM80.7168 152C76.3008 152 72.7168 148.408 72.7168 144C72.7168 139.592 76.3008 136 80.7168 136H88.7168V144C88.7168 146.704 88.8928 149.368 89.1888 152H80.7168ZM104.717 144V105.056C104.717 102.264 106.205 99.632 108.597 98.2L136.213 81.632L163.917 102.4L173.509 89.6L137.213 62.368L100.365 84.48C93.1808 88.792 88.7168 96.672 88.7168 105.056V120H86.1328L75.0048 92.176C73.4848 88.384 72.7168 84.384 72.7168 80C72.7168 62.352 87.0688 48 104.717 48H107.381L109.517 46.4C128.781 31.96 152.645 24 176.717 24H233.685C250.797 24 264.717 37.92 264.717 55.032C264.717 63.704 261.197 72.2 255.061 78.344C248.837 84.568 240.557 88 231.749 88C218.709 88 205.917 83.512 195.733 75.368L173.717 57.752L163.717 70.248L185.733 87.864C194.789 95.104 205.461 100.016 216.717 102.376V144C216.717 174.88 191.589 200 160.717 200C129.845 200 104.717 174.88 104.717 144ZM171.037 286.104L164.437 296H156.997L150.397 286.104L160.717 280.944L171.037 286.104ZM135.981 293.312L143.893 305.184L136.269 328.064C131.685 318.624 128.173 308.712 125.597 298.504L135.981 293.312ZM158.477 312H162.949L174.445 346.504C170.285 352.72 165.789 358.752 160.709 364.384C155.629 358.744 151.133 352.72 146.973 346.504L158.477 312ZM185.165 328.064L177.541 305.184L185.453 293.312L195.837 298.504C193.261 308.712 189.749 318.624 185.165 328.064ZM200.717 260.12C200.717 267.584 200.037 274.936 199.013 282.2L169.325 267.36L193.525 248C195.093 249.032 196.757 249.944 198.565 250.584C199.301 250.848 199.997 251.176 200.725 251.448V260.12H200.717ZM160.717 216C167.133 216 173.333 215.072 179.261 213.488L183.101 232.68C183.277 233.552 183.677 234.328 183.949 235.168L160.717 253.752L137.493 235.168C137.757 234.336 138.165 233.552 138.341 232.688L142.181 213.488C148.101 215.072 154.301 216 160.717 216V216ZM122.885 250.576C124.685 249.936 126.349 249.024 127.917 247.992L152.117 267.352L122.429 282.192C121.397 274.936 120.717 267.584 120.717 260.12V251.448C121.445 251.176 122.141 250.84 122.885 250.576V250.576ZM296.717 488H248.717V347.312C248.717 342.152 250.725 337.304 254.373 333.656L243.061 322.336C236.389 329.008 232.717 337.872 232.717 347.312V488H88.7168V347.312C88.7168 337.872 85.0448 329.008 78.3728 322.336L67.0608 333.656C70.7088 337.304 72.7168 342.152 72.7168 347.312V488H24.7168V389.872C24.7168 334.216 56.1968 283.72 104.717 258.584V260.12C104.717 306.032 122.589 349.192 155.061 381.656L160.717 387.312L166.373 381.656C198.845 349.192 216.717 306.024 216.717 260.12V258.584C265.229 283.712 296.717 334.216 296.717 389.872V488ZM376.717 488H312.717V472H376.717V488ZM344.717 456H312.717V440H344.717V456ZM488.717 424H312.717V408H488.717V424ZM472.717 392H312.717V389.872C312.717 320.784 269.005 258.752 203.941 235.52C201.309 234.576 199.333 232.296 198.781 229.552L194.389 207.6C210.189 199.2 222.453 185.064 228.509 168.008H240.717C253.949 168.008 264.717 157.24 264.717 144.008C264.717 141.192 264.141 138.52 263.245 136.008H472.717V392Z" fill="#0561A6"/>
<path d="M264.717 216V232H280.717C280.717 267.288 309.429 296 344.717 296C359.485 296 373.053 290.928 383.901 282.496L392.717 291.312C395.693 294.296 399.821 296 404.029 296H424.717V280H404.029L395.213 271.184C403.645 260.336 408.717 246.768 408.717 232H424.717V216H406.613C404.397 207.448 400.485 199.6 395.213 192.816L404.029 184H424.717V168H404.029C399.821 168 395.693 169.704 392.717 172.688L383.901 181.504C373.053 173.072 359.485 168 344.717 168C314.965 168 289.957 188.44 282.821 216H264.717ZM344.717 280C318.245 280 296.717 258.472 296.717 232H312.717C312.717 249.648 327.069 264 344.717 264C350.637 264 356.109 262.28 360.869 259.464L372.485 271.08C364.637 276.672 355.069 280 344.717 280ZM360.717 232C360.717 240.824 353.541 248 344.717 248C335.893 248 328.717 240.824 328.717 232C328.717 223.176 335.893 216 344.717 216C353.541 216 360.717 223.176 360.717 232ZM392.717 232C392.717 242.352 389.389 251.92 383.797 259.768L372.181 248.152C374.997 243.392 376.717 237.92 376.717 232C376.717 226.08 374.997 220.608 372.181 215.848L383.797 204.232C389.389 212.08 392.717 221.648 392.717 232V232ZM344.717 184C355.069 184 364.637 187.328 372.485 192.92L360.869 204.536C356.109 201.72 350.637 200 344.717 200C332.925 200 322.717 206.48 317.165 216H299.517C306.125 197.384 323.861 184 344.717 184Z" fill="#0561A6"/>
<path d="M440.717 168H456.717V184H440.717V168Z" fill="#0561A6"/>
<path d="M440.717 280H456.717V296H440.717V280Z" fill="#0561A6"/>
<path d="M440.717 216H456.717V232H440.717V216Z" fill="#0561A6"/>
<path d="M232.717 216H248.717V232H232.717V216Z" fill="#0561A6"/>
<path d="M392.717 328V360C392.717 368.824 399.893 376 408.717 376H440.717C449.541 376 456.717 368.824 456.717 360V328C456.717 319.176 449.541 312 440.717 312H408.717C399.893 312 392.717 319.176 392.717 328ZM440.725 360H408.717V328H440.717L440.725 360Z" fill="#0561A6"/>
<path d="M320.717 328H376.717V344H320.717V328Z" fill="#0561A6"/>
<path d="M336.717 360H376.717V376H336.717V360Z" fill="#0561A6"/>
</svg>
