<svg width="480" height="480" viewBox="0 0 480 480" fill="none" xmlns="http://www.w3.org/2000/svg">
<g clip-path="url(#clip0)">
<path d="M430.651 112.511C448.257 95.6985 452.983 69.4385 442.344 47.5447C431.706 25.6508 408.14 13.1379 384.044 16.5942C359.947 20.0465 340.842 38.6754 336.784 62.6743C332.723 86.677 344.638 110.551 366.255 121.74C357.276 129.258 352.07 140.357 352.027 152.069V216.056H328.032V152.069C327.989 123.74 306.81 99.8969 278.683 96.5148C295.25 80.7212 300.534 56.4334 292.028 35.184C283.522 13.9307 262.941 0 240.051 0C217.161 0 196.58 13.9307 188.074 35.184C179.568 56.4334 184.852 80.7212 201.418 96.5148C173.292 99.8969 152.112 123.74 152.069 152.069V216.056H128.075V152.069C128.032 140.357 122.826 129.258 113.847 121.74C135.464 110.551 147.379 86.677 143.317 62.6743C139.256 38.6754 120.154 20.0465 96.0579 16.5942C71.9614 13.1379 48.3961 25.6508 37.7577 47.5447C27.1193 69.4385 31.8449 95.6985 49.4505 112.511C21.3236 115.894 0.144522 139.736 0.101562 168.066V288.041C0.132806 309.638 12.5794 329.294 32.0948 338.55V480H48.0914V343.388C50.7159 343.763 104.08 344.029 104.08 344.029C108.497 344.029 112.078 347.61 112.078 352.027V480H176.064V328.032H232.053V464.004H200.059V480H280.042V464.004H248.049V328.032H304.037V480H368.024V352.027C368.024 347.61 371.605 344.029 376.022 344.029C376.022 344.029 429.386 343.763 432.01 343.388V480H448.007V338.55C467.522 329.294 479.969 309.638 480 288.041V168.066C479.957 139.736 458.778 115.894 430.651 112.511ZM352.027 72.0863C352.027 50.0012 369.934 32.0948 392.019 32.0948C414.104 32.0948 432.01 50.0012 432.01 72.0863C432.01 94.1715 414.104 112.078 392.019 112.078C369.941 112.051 352.055 94.1637 352.027 72.0863ZM257.102 112.078L240.051 137.674L223 112.078H257.102ZM200.059 56.0897C200.059 34.0045 217.966 16.0982 240.051 16.0982C262.136 16.0982 280.042 34.0045 280.042 56.0897C280.042 78.1749 262.136 96.0813 240.051 96.0813C217.974 96.0539 200.087 78.1671 200.059 56.0897ZM168.066 152.069C168.132 131.593 183.684 114.491 204.059 112.484L240.051 166.465L276.043 112.461C296.43 114.468 311.981 131.586 312.036 152.069V216.056H280.042V264.046H200.059V216.056H168.066V152.069ZM48.0914 72.0863C48.0914 50.0012 65.9978 32.0948 88.083 32.0948C110.168 32.0948 128.075 50.0012 128.075 72.0863C128.075 94.1715 110.168 112.078 88.083 112.078C66.0056 112.051 48.1188 94.1637 48.0914 72.0863ZM160.068 464.004H128.075V352.027C128.075 338.776 117.331 328.032 104.08 328.032H56.0897C34.0124 328.005 16.1255 310.118 16.0982 288.041V168.066C16.1255 145.989 34.0124 128.102 56.0897 128.075H88.083C101.334 128.075 112.078 138.818 112.078 152.069V232.053H184.063V264.046H88.083C83.666 264.046 80.0847 260.465 80.0847 256.048V160.068H64.0881V256.048C64.0881 269.299 74.8319 280.042 88.083 280.042H120.076C142.154 280.07 160.04 297.957 160.068 320.034V464.004ZM175.424 312.036C173.674 299.874 167.965 288.63 159.181 280.042H320.921C312.137 288.63 306.428 299.874 304.678 312.036H175.424ZM464.004 288.041C463.976 310.118 446.089 328.005 424.012 328.032H376.022C362.771 328.032 352.027 338.776 352.027 352.027V464.004H320.034V320.034C320.061 297.957 337.948 280.07 360.026 280.042H392.019C405.27 280.042 416.014 269.299 416.014 256.048V160.068H400.017V256.048C400.017 260.465 396.436 264.046 392.019 264.046H296.039V232.053H368.024V152.069C368.024 138.818 378.768 128.075 392.019 128.075H424.012C446.089 128.102 463.976 145.989 464.004 168.066V288.041Z" fill="#1AC7BE"/>
</g>
<defs>
<clipPath id="clip0">
<rect width="480" height="480" fill="white"/>
</clipPath>
</defs>
</svg>
