<svg width="497" height="496" viewBox="0 0 497 496" fill="none" xmlns="http://www.w3.org/2000/svg">
<g clip-path="url(#clip0)">
<path d="M403.241 432L384.721 376.432C378.249 357.032 361.737 342.712 341.609 339.048L288.145 329.32V325.176C297.449 319.776 305.545 312.552 311.993 304H328.145C341.377 304 352.145 293.232 352.145 280V184C352.145 126.656 305.489 80 248.145 80C190.801 80 144.145 126.656 144.145 184V240C144.145 255.424 155.113 268.328 169.657 271.336C174.145 294.328 188.513 313.784 208.145 325.176V329.32L154.673 339.048C134.553 342.712 118.033 357.032 111.569 376.432L108.369 386.04L81.1209 358.792C78.0009 355.672 78.0009 350.592 81.1209 347.472L112.721 315.88L53.4089 256.568L17.6969 292.28C7.12087 302.856 1.29688 316.92 1.29688 331.88C1.29688 346.84 7.12087 360.896 17.6969 371.472L125.817 479.592C136.393 490.168 150.457 496 165.417 496C180.377 496 194.433 490.168 204.761 479.832L243.729 444.128L231.577 432H403.241ZM336.145 280C336.145 284.416 332.553 288 328.145 288H321.417C323.737 282.712 325.497 277.136 326.633 271.336C330.057 270.624 333.209 269.264 336.145 267.552V280ZM328.145 253.776V226.224C332.905 229 336.145 234.104 336.145 240C336.145 245.896 332.905 251 328.145 253.776ZM168.145 253.776C163.385 251 160.145 245.896 160.145 240C160.145 234.104 163.385 229 168.145 226.224V253.776ZM168.145 200V209.136C165.297 209.88 162.625 211 160.145 212.448V184C160.145 135.48 199.625 96 248.145 96C296.665 96 336.145 135.48 336.145 184V212.448C333.665 211 330.993 209.872 328.145 209.136V200H320.145C296.489 200 274.249 190.784 257.513 174.056L248.145 164.688L238.777 174.056C222.041 190.784 199.801 200 176.145 200H168.145ZM184.145 256V215.696C208.169 213.888 230.569 203.976 248.145 187.264C265.721 203.976 288.121 213.896 312.145 215.696V256C312.145 267.664 308.961 278.576 303.489 288H248.145V304H290.337C279.057 313.928 264.313 320 248.145 320C212.857 320 184.145 291.288 184.145 256ZM272.145 332.312V332.688L248.145 356.688L224.145 332.688V332.312C231.729 334.696 239.785 336 248.145 336C256.505 336 264.561 334.696 272.145 332.312ZM126.737 381.488C131.353 367.632 143.153 357.4 157.529 354.776L213.449 344.616L248.145 379.312L282.833 344.624L338.745 354.784C353.121 357.408 364.921 367.632 369.537 381.496L381.049 416H215.577L184.417 384.84L149.793 416.16C146.777 419.192 141.505 419.192 138.481 416.16L121.009 398.688L126.737 381.488ZM53.4009 279.192L90.0889 315.88L81.4009 324.568L44.7129 287.88L53.4009 279.192ZM193.681 468.296C186.129 475.832 176.081 480 165.401 480C154.721 480 144.673 475.832 137.113 468.28L28.9929 360.168C21.4409 352.616 17.2809 342.568 17.2809 331.888C17.2809 321.2 21.4409 311.152 28.9929 303.6L33.3929 299.2L70.0809 335.888L69.7929 336.176C60.4409 345.536 60.4409 360.76 69.7929 370.12L127.161 427.488C131.697 432.016 137.721 434.52 144.137 434.52C150.553 434.52 156.577 432.024 160.817 427.768L161.417 427.232L198.273 464.088L193.681 468.296ZM210.081 453.256L173.305 416.48L183.873 406.928L220.585 443.64L210.081 453.256Z" fill="white"/>
<path d="M472.145 0H360.145C346.913 0 336.145 10.768 336.145 24V88C336.145 101.232 346.913 112 360.145 112H381.513L373.241 160.248L450.441 112H472.145C485.377 112 496.145 101.232 496.145 88V24C496.145 10.768 485.377 0 472.145 0ZM480.145 88C480.145 92.408 476.553 96 472.145 96H445.849L395.041 127.752L400.489 96H360.145C355.737 96 352.145 92.408 352.145 88V24C352.145 19.592 355.737 16 360.145 16H472.145C476.553 16 480.145 19.592 480.145 24V88Z" fill="white"/>
<path d="M464.145 32H368.145V48H464.145V32Z" fill="white"/>
<path d="M432.145 64H368.145V80H432.145V64Z" fill="white"/>
<path d="M464.145 64H448.145V80H464.145V64Z" fill="white"/>
<path d="M248.145 24C143.617 24 53.5771 96.304 30.1691 197.16L15.0091 171.888L1.28906 180.12L29.4091 226.976L76.2651 198.856L68.0331 185.136L46.3531 198.144C69.0251 105.88 151.993 40 248.145 40C269.161 40 289.897 43.12 309.777 49.28L314.513 34C293.097 27.36 270.769 24 248.145 24Z" fill="white"/>
<path d="M492.256 177.136L445.4 149.016L417.288 195.88L431.008 204.112L445.008 180.776C452.376 202.336 456.144 224.888 456.144 248C456.144 295.576 439.664 342.088 409.752 378.96L422.176 389.04C454.4 349.328 472.144 299.232 472.144 248C472.144 223.528 468.2 199.632 460.512 176.752L484.024 190.856L492.256 177.136Z" fill="white"/>
</g>
<defs>
<clipPath id="clip0">
<rect width="496" height="496" fill="white" transform="translate(0.716797)"/>
</clipPath>
</defs>
</svg>
