<svg width="400" height="400" viewBox="0 0 400 400" fill="none" xmlns="http://www.w3.org/2000/svg">
<g clip-path="url(#clip0)">
<path d="M367.311 189.321C367.311 167.56 357.572 148.067 342.271 134.847C338.411 60.1145 275.732 0 200.246 0C124.85 0 62.1714 60.1184 58.3111 134.855C43.0141 148.071 33.2793 167.564 33.2793 189.321C33.2793 229.049 65.5946 261.364 105.314 261.364C110.358 261.364 114.448 257.277 114.448 252.227L114.452 126.424C114.452 123.996 113.492 121.677 111.778 119.964C110.065 118.25 107.738 117.286 105.318 117.286C95.6226 117.286 86.3835 119.238 77.9329 122.723C87.4023 63.8031 139.004 18.2713 200.34 18.2713C261.59 18.2713 313.184 63.8031 322.653 122.723C314.203 119.238 304.968 117.286 295.276 117.286C290.233 117.286 286.142 121.373 286.142 126.424V252.227C286.142 257.277 290.233 261.364 295.276 261.364C304.983 261.364 314.238 259.409 322.696 255.911C314.98 304.265 278.894 344.301 230.95 356.456C225.446 346.21 213.806 339.063 200.25 339.063C181.425 339.063 166.112 352.732 166.112 369.532C166.112 386.332 181.425 400.001 200.25 400.001C217.155 400.001 231.129 388.947 233.819 374.524C294.558 359.883 339.121 306.377 342.306 243.772C357.588 230.548 367.311 211.066 367.311 189.321V189.321ZM96.1769 242.316C70.8719 237.964 51.5506 215.856 51.5506 189.321C51.5506 162.787 70.8719 140.686 96.1808 136.334L96.1769 242.316ZM200.25 381.73C191.503 381.73 184.383 376.257 184.383 369.532C184.383 362.807 191.503 357.334 200.25 357.334C208.998 357.334 216.113 362.807 216.113 369.532C216.113 376.257 208.998 381.73 200.25 381.73ZM304.413 136.334C329.718 140.686 349.04 162.787 349.04 189.321C349.04 215.856 329.718 237.964 304.413 242.316V136.334Z" fill="#C7BE1A"/>
</g>
<defs>
<clipPath id="clip0">
<rect width="400" height="400" fill="white"/>
</clipPath>
</defs>
</svg>
