<svg width="512" height="512" viewBox="0 0 512 512" fill="none" xmlns="http://www.w3.org/2000/svg">
<g clip-path="url(#clip0)">
<path d="M485.291 129.408L261.291 1.40799C258.006 -0.469006 253.995 -0.469006 250.71 1.40799L26.71 129.408C23.382 131.307 21.334 134.848 21.334 138.667V373.334C21.334 377.153 23.382 380.694 26.71 382.593L250.71 510.593C252.353 511.532 254.166 512.001 256.001 512.001C257.836 512.001 259.649 511.532 261.292 510.593L485.292 382.593C488.62 380.694 490.668 377.153 490.668 373.334V138.667C490.667 134.848 488.619 131.307 485.291 129.408ZM469.333 367.147L256 489.045L42.667 367.147V144.853L256 22.955L469.333 144.854V367.147V367.147Z" fill="#0561A6"/>
</g>
<defs>
<clipPath id="clip0">
<rect width="512" height="512" fill="white"/>
</clipPath>
</defs>
</svg>
