<svg width="488" height="488" viewBox="0 0 488 488" fill="none" xmlns="http://www.w3.org/2000/svg">
<g clip-path="url(#clip0)">
<path d="M348.059 0H60.0586C29.1476 0.04 4.09859 25.089 4.05859 56V343.336C4.09859 374.247 29.1476 399.296 60.0586 399.336H148.059V383.336H60.0586C37.9786 383.31 20.0846 365.416 20.0586 343.336V208H71.4346C76.1756 207.653 79.7386 203.529 79.3916 198.787C79.3246 197.873 79.1126 196.975 78.7626 196.128C71.6526 179.948 79.0046 161.068 95.1846 153.958C111.365 146.848 130.245 154.2 137.355 170.38C140.96 178.584 140.96 187.924 137.355 196.128C135.379 200.262 137.129 205.215 141.263 207.191C142.332 207.702 143.499 207.978 144.683 208.001H196.059V256.001C193.416 255.551 190.74 255.329 188.059 255.337C161.549 255.328 140.052 276.811 140.042 303.32C140.035 322.419 151.352 339.704 168.859 347.337L175.259 332.681C159.053 325.631 151.63 306.779 158.679 290.573C163.765 278.88 175.308 271.323 188.059 271.337C192.468 271.336 196.828 272.257 200.859 274.041C204.908 275.808 209.624 273.958 211.391 269.909C211.831 268.901 212.058 267.813 212.059 266.713V208H252.739C252.284 210.642 252.056 213.319 252.059 216C252.107 238.794 268.136 258.43 290.459 263.04L293.659 247.368C278.777 244.289 268.092 231.197 268.059 216C268.058 211.591 268.979 207.231 270.763 203.2C272.53 199.151 270.68 194.435 266.631 192.668C265.623 192.228 264.535 192.001 263.435 192H212.059V151.32C214.701 151.775 217.378 152.003 220.059 152C246.569 152 268.059 130.51 268.059 104C268.059 77.49 246.569 56 220.059 56C217.378 55.997 214.701 56.225 212.059 56.68V16H348.059C370.139 16.026 388.033 33.92 388.059 56V192H336.683C332.265 192.002 328.685 195.586 328.687 200.004C328.688 201.104 328.915 202.192 329.355 203.2C331.139 207.231 332.06 211.591 332.059 216H348.059C348.062 213.319 347.834 210.642 347.379 208H396.059C400.477 208 404.059 204.418 404.059 200V56C404.019 25.089 378.97 0.04 348.059 0ZM220.059 72C237.732 72 252.059 86.327 252.059 104C252.059 121.673 237.732 136 220.059 136C215.65 136.001 211.29 135.08 207.259 133.296C203.21 131.529 198.494 133.379 196.727 137.428C196.287 138.436 196.06 139.524 196.059 140.624V191.336H155.435C155.836 188.911 156.044 186.458 156.059 184C156.059 183.856 156.059 183.728 156.059 183.584C156.059 183.44 156.059 183.416 156.059 183.336C156.059 156.826 134.569 135.336 108.059 135.336C81.5486 135.336 60.0586 156.826 60.0586 183.336C60.0586 183.416 60.0586 183.504 60.0586 183.584C60.0586 183.664 60.0586 183.856 60.0586 184C60.0736 186.458 60.2816 188.911 60.6826 191.336H20.0586V56C20.0846 33.92 37.9786 16.026 60.0586 16H196.059V67.376C196.061 71.794 199.645 75.374 204.063 75.372C205.163 75.371 206.251 75.144 207.259 74.704C211.29 72.92 215.65 71.999 220.059 72Z" fill="white"/>
<path d="M466.946 343.856L399.69 297.544L373.858 228.528C372.317 224.387 367.711 222.28 363.57 223.821C363.422 223.876 363.275 223.936 363.13 224L311.13 247C307.232 248.721 305.368 253.196 306.89 257.176C307.754 259.416 308.562 261.112 309.418 262.872C310.274 264.632 311.066 266.28 312.034 268.88C318.244 285.473 309.883 303.967 293.322 310.264C276.769 316.455 258.331 308.056 252.139 291.502C250.586 287.35 249.913 282.921 250.162 278.496C250.394 274.084 247.005 270.319 242.593 270.087C241.487 270.029 240.382 270.201 239.346 270.592L183.762 291.528C179.635 293.083 177.545 297.685 179.09 301.816L199.042 355.12C196.397 355.602 193.8 356.319 191.282 357.264C166.387 366.541 153.727 394.243 163.004 419.138C172.281 444.033 199.983 456.693 224.878 447.416C227.441 446.461 229.918 445.289 232.282 443.912L246.586 482.12C248.136 486.258 252.746 488.355 256.884 486.805C256.889 486.803 256.893 486.801 256.898 486.8L336.162 456.936C341.141 467.638 350.303 475.819 361.498 479.56L366.554 464.36C359.96 462.138 354.48 457.455 351.258 451.288L375.378 442.208C383.301 464.493 404.407 479.367 428.058 479.336V463.336C406.023 463.201 388.193 445.371 388.058 423.336C388.058 421.214 387.214 419.18 385.714 417.68L357.858 389.824C353.728 385.658 353.262 379.1 356.762 374.392C358.8 371.641 361.946 369.927 365.362 369.704C368.783 369.416 372.152 370.676 374.546 373.136L430.402 428.992L441.714 417.68L425.186 401.152C429.258 388.975 429.007 375.766 424.474 363.752L409.482 323.712L457.826 357C464.234 361.498 468.052 368.835 468.058 376.664V480H484.058V376.664C484.047 363.591 477.66 351.346 466.946 343.856ZM409.49 369.36C411.7 375.234 412.5 381.544 411.826 387.784L385.858 361.824C375.139 350.831 357.539 350.61 346.546 361.328C335.553 372.047 335.332 389.647 346.05 400.64C346.213 400.807 346.378 400.973 346.546 401.136L371.85 426.44L258.794 469.024L243.546 428.28C242.597 425.748 240.433 423.868 237.794 423.28C237.224 423.154 236.642 423.089 236.058 423.088C233.965 423.086 231.955 423.905 230.458 425.368C217.612 437.505 197.358 436.93 185.221 424.083C173.084 411.237 173.659 390.983 186.506 378.846C189.528 375.991 193.076 373.753 196.954 372.255C199.501 371.311 202.161 370.709 204.866 370.463C206.53 370.259 208.208 370.203 209.882 370.295C214.294 370.526 218.059 367.137 218.29 362.725C218.348 361.628 218.179 360.531 217.794 359.503L196.898 303.711L234.994 289.367C239.994 315.401 265.152 332.452 291.186 327.453C293.846 326.942 296.458 326.207 298.994 325.255C323.801 315.843 336.34 288.156 327.05 263.303C326.314 261.335 325.65 259.775 325.01 258.383L361.81 242.087L409.49 369.36Z" fill="white"/>
</g>
<defs>
<clipPath id="clip0">
<rect width="487.316" height="487.316" fill="white" transform="translate(0.400391)"/>
</clipPath>
</defs>
</svg>
