<svg width="513" height="512" viewBox="0 0 513 512" fill="none" xmlns="http://www.w3.org/2000/svg">
<path d="M104.717 488C104.717 492.418 108.295 496 112.717 496H312.717C317.138 496 320.717 492.418 320.717 488V456H416.717C421.138 456 424.717 452.418 424.717 448V352H472.717C475.131 352 477.42 350.91 478.935 349.031C480.459 347.152 481.045 344.688 480.537 342.324L456.717 231.145C456.474 170.094 430.263 111.77 384.724 71.0079C338.342 29.4883 278.412 10.4454 216.021 17.3751C115.834 28.5039 35.8415 109.445 25.8259 209.836C20.5994 262.191 34.3259 314.406 64.49 356.859C90.8103 393.898 104.717 439.246 104.717 488V488ZM41.7479 211.426C51.0213 118.5 125.052 43.5782 217.787 33.2735C275.638 26.8751 331.107 44.4883 374.052 82.9297C416.42 120.852 440.717 175.184 440.717 232C440.717 232.562 440.779 233.125 440.896 233.676L462.818 336H416.717C412.295 336 408.717 339.582 408.717 344V440H312.717H280.717V456H304.717V480H120.599C119.146 430.941 104.334 385.312 77.5369 347.594C49.615 308.293 36.9041 259.934 41.7479 211.426V211.426Z" fill="white"/>
<path d="M287.334 245.793L281.389 231.586C282.67 228.953 283.803 226.215 284.772 223.395L299.045 217.539C301.709 216.445 303.576 214 303.943 211.145C304.475 206.973 304.717 203.434 304.717 200C304.717 196.566 304.475 193.027 303.943 188.856C303.576 186 301.709 183.555 299.045 182.461L284.772 176.606C283.803 173.789 282.678 171.051 281.396 168.414L287.334 154.207C288.443 151.547 288.037 148.5 286.272 146.223C281.701 140.316 276.396 135.008 270.498 130.441C268.217 128.668 265.154 128.277 262.514 129.383L248.303 135.324C245.662 134.043 242.928 132.914 240.115 131.949L234.256 117.676C233.162 115.008 230.725 113.137 227.865 112.773C219.521 111.719 213.912 111.719 205.568 112.773C202.709 113.137 200.271 115.008 199.178 117.676L193.318 131.949C190.506 132.914 187.771 134.043 185.131 135.324L170.92 129.383C168.271 128.277 165.209 128.668 162.935 130.441C157.037 135.012 151.732 140.316 147.162 146.215C145.396 148.492 144.99 151.543 146.1 154.203L152.045 168.41C150.764 171.047 149.631 173.785 148.662 176.605L134.389 182.461C131.724 183.555 129.857 186 129.49 188.855C128.959 193.027 128.717 196.566 128.717 200C128.717 203.434 128.959 206.973 129.49 211.145C129.857 214 131.725 216.445 134.389 217.539L148.662 223.395C149.631 226.211 150.756 228.949 152.037 231.586L146.1 245.793C144.99 248.453 145.396 251.5 147.162 253.778C151.732 259.684 157.037 264.992 162.936 269.559C165.209 271.328 168.271 271.719 170.92 270.617L185.131 264.676C187.772 265.957 190.506 267.086 193.318 268.051L199.178 282.324C200.272 284.992 202.709 286.863 205.568 287.227C209.74 287.754 213.279 288 216.717 288C220.154 288 223.693 287.754 227.865 287.227C230.725 286.863 233.162 284.992 234.256 282.324L240.115 268.051C242.936 267.086 245.67 265.957 248.303 264.676L262.514 270.617C265.154 271.719 268.217 271.328 270.498 269.559C276.396 264.992 281.701 259.684 286.272 253.777C288.037 251.5 288.443 248.449 287.334 245.793V245.793ZM275.217 210.016C272.943 210.949 271.225 212.875 270.561 215.238C269.342 219.52 267.67 223.578 265.584 227.293C264.381 229.441 264.232 232.027 265.178 234.297L270.709 247.512C268.686 249.809 266.522 251.973 264.232 253.992L251.014 248.465C248.74 247.52 246.162 247.664 244.014 248.871C240.295 250.957 236.24 252.629 231.959 253.844C229.592 254.512 227.67 256.231 226.74 258.504L221.272 271.824C218.068 272.059 215.365 272.059 212.162 271.824L206.694 258.504C205.764 256.231 203.842 254.512 201.475 253.844C197.209 252.633 193.154 250.957 189.412 248.867C187.256 247.672 184.694 247.52 182.42 248.465L169.201 253.992C166.912 251.973 164.748 249.805 162.725 247.512L168.248 234.297C169.194 232.027 169.045 229.449 167.85 227.305C165.756 223.574 164.084 219.516 162.873 215.238C162.209 212.875 160.491 210.949 158.217 210.016L144.897 204.551C144.772 202.949 144.717 201.453 144.717 200C144.717 198.547 144.772 197.051 144.896 195.449L158.217 189.984C160.49 189.051 162.209 187.125 162.873 184.762C164.092 180.48 165.764 176.422 167.85 172.707C169.053 170.559 169.201 167.977 168.256 165.703L162.725 152.484C164.748 150.191 166.912 148.027 169.201 146.008L182.42 151.535C184.693 152.481 187.256 152.328 189.412 151.133C193.154 149.043 197.209 147.367 201.474 146.156C203.842 145.488 205.764 143.77 206.693 141.496L212.162 128.176C215.365 127.941 218.068 127.941 221.271 128.176L226.74 141.496C227.67 143.77 229.592 145.488 231.959 146.156C236.224 147.367 240.279 149.043 244.021 151.133C246.162 152.328 248.74 152.481 251.013 151.535L264.232 146.008C266.521 148.027 268.685 150.195 270.709 152.488L265.185 165.703C264.24 167.973 264.388 170.551 265.584 172.695C267.677 176.426 269.349 180.484 270.56 184.762C271.224 187.125 272.943 189.051 275.216 189.984L288.537 195.449C288.662 197.051 288.717 198.547 288.717 200C288.717 201.453 288.662 202.949 288.537 204.551L275.217 210.016Z" fill="white"/>
<path d="M216.717 160C194.662 160 176.717 177.945 176.717 200C176.717 222.055 194.662 240 216.717 240C238.772 240 256.717 222.055 256.717 200C256.717 177.945 238.772 160 216.717 160ZM216.717 224C203.482 224 192.717 213.234 192.717 200C192.717 186.766 203.482 176 216.717 176C229.951 176 240.717 186.766 240.717 200C240.717 213.234 229.951 224 216.717 224Z" fill="white"/>
<path d="M283.107 290.219L292.607 303.094C301.764 296.344 309.99 288.398 317.068 279.473L304.537 269.527C298.334 277.348 291.123 284.309 283.107 290.219V290.219Z" fill="white"/>
<path d="M102.725 258.262L116.959 250.965C113.514 244.23 110.748 237.137 108.74 229.871C106.068 220.199 104.717 210.148 104.717 200C104.717 138.242 154.959 88 216.717 88H277.404L267.061 98.3437L278.373 109.656L302.373 85.6562C305.498 82.5313 305.498 77.4687 302.373 74.3437L278.373 50.3438L267.061 61.6562L277.404 72H216.717C146.139 72 88.7168 129.422 88.7168 200C88.7168 211.586 90.2637 223.07 93.3184 234.129C95.6152 242.441 98.7793 250.559 102.725 258.262Z" fill="white"/>
<path d="M340.115 234.129L324.693 229.871C322.045 239.473 318.107 248.68 313.006 257.242L326.74 265.438C332.584 255.648 337.084 245.113 340.115 234.129V234.129Z" fill="white"/>
<path d="M124.631 263.762L111.475 272.879C117.959 282.227 125.662 290.684 134.389 298.02L144.686 285.77C137.045 279.348 130.295 271.945 124.631 263.762V263.762Z" fill="white"/>
<path d="M242.764 308.957L246.467 324.52C257.545 321.887 268.225 317.766 278.232 312.273L270.529 298.25C261.787 303.051 252.443 306.652 242.764 308.957Z" fill="white"/>
<path d="M148.146 308.098C157.771 314.219 168.17 319.019 179.053 322.367L183.756 307.07C174.24 304.148 165.154 299.949 156.74 294.598L148.146 308.098Z" fill="white"/>
<path d="M229.662 327.355L228.053 311.434C224.334 311.809 220.561 312 216.818 312C210.607 312.293 204.365 311.496 198.287 310.492L195.678 326.273C202.623 327.422 210.037 327.906 216.826 328C221.092 328 225.404 327.781 229.662 327.355V327.355Z" fill="white"/>
<path d="M184.717 440H200.717V456H184.717V440Z" fill="white"/>
<path d="M216.717 440H232.717V456H216.717V440Z" fill="white"/>
<path d="M248.717 440H264.717V456H248.717V440Z" fill="white"/>
</svg>
