<svg width="512" height="512" viewBox="0 0 512 512" fill="none" xmlns="http://www.w3.org/2000/svg">
<path d="M438.389 229.708C437.514 229.707 436.648 229.54 435.836 229.217L383.667 208.46C382.407 207.96 381.321 207.101 380.545 205.989C379.769 204.877 379.336 203.561 379.302 202.206C379.267 200.85 379.632 199.514 380.35 198.364C381.068 197.214 382.109 196.3 383.342 195.736C388.471 193.376 392.499 189.139 394.599 183.898C395.664 181.215 396.19 178.348 396.147 175.461C396.103 172.574 395.491 169.724 394.345 167.074C393.2 164.424 391.543 162.026 389.469 160.016C387.396 158.007 384.947 156.426 382.262 155.364C376.847 153.21 370.798 153.293 365.443 155.594C360.088 157.895 355.865 162.227 353.701 167.638C352.642 170.218 352.102 172.982 352.112 175.77C352.121 178.559 352.68 181.318 353.757 183.891C354.293 185.148 354.446 186.535 354.195 187.878C353.944 189.221 353.301 190.46 352.347 191.438C351.393 192.417 350.171 193.091 348.835 193.375C347.499 193.66 346.108 193.542 344.838 193.038L292.469 172.226C291.623 171.89 290.852 171.391 290.2 170.757C289.547 170.124 289.026 169.367 288.666 168.532C288.306 167.696 288.115 166.798 288.102 165.889C288.09 164.979 288.257 164.076 288.594 163.231L304.729 122.652C300.225 122.626 295.766 121.756 291.583 120.085C286.703 118.125 282.314 115.115 278.728 111.268C275.143 107.421 272.448 102.832 270.836 97.8261C269.224 92.8204 268.734 87.5211 269.4 82.3046C270.067 77.0881 271.874 72.0824 274.693 67.643C277.513 63.2037 281.275 59.4395 285.713 56.618C290.151 53.7965 295.155 51.9867 300.371 51.3174C305.588 50.648 310.887 51.1354 315.894 52.745C320.9 54.3546 325.491 57.0468 329.34 60.6305L345.516 19.9957C345.852 19.1508 346.352 18.3804 346.986 17.7287C347.62 17.0769 348.376 16.5566 349.212 16.1974C350.047 15.8382 350.945 15.6471 351.854 15.6352C352.764 15.6233 353.666 15.7908 354.511 16.128L485.223 68.0822C490.277 70.0982 494.325 74.0357 496.48 79.0315C498.636 84.0274 498.723 89.674 496.722 94.7338L444.83 225.301C444.325 226.598 443.44 227.713 442.29 228.499C441.141 229.286 439.781 229.707 438.389 229.708ZM400.335 200.22L434.507 213.795L483.846 89.6554C484.476 88.0056 484.437 86.1752 483.738 84.5536C483.039 82.932 481.735 81.6471 480.103 80.9721L355.825 31.5434L337.642 77.3812C337.141 78.6458 336.278 79.7347 335.162 80.5116C334.045 81.2885 332.724 81.719 331.364 81.7493C330.004 81.7796 328.665 81.4083 327.515 80.6818C326.365 79.9553 325.455 78.906 324.898 77.6649C323.109 73.7455 320.207 70.4382 316.554 68.1541C312.901 65.8701 308.658 64.7099 304.351 64.8177C300.044 64.9256 295.863 66.2968 292.329 68.7609C288.795 71.225 286.063 74.6733 284.472 78.6773C282.882 82.6814 282.503 87.0645 283.383 91.2821C284.263 95.4996 286.363 99.3655 289.422 102.399C292.481 105.433 296.364 107.501 300.589 108.347C304.813 109.192 309.193 108.777 313.184 107.153C314.44 106.636 315.821 106.5 317.154 106.763C318.487 107.025 319.714 107.674 320.68 108.629C321.647 109.584 322.311 110.802 322.59 112.132C322.868 113.461 322.75 114.844 322.248 116.106L304.009 161.903L338.272 175.526C338.295 169.681 339.747 163.93 342.499 158.774C345.251 153.618 349.222 149.212 354.065 145.939C358.908 142.667 364.477 140.627 370.288 139.998C376.099 139.368 381.976 140.167 387.407 142.327C392.839 144.486 397.661 147.939 401.454 152.386C405.247 156.833 407.896 162.14 409.171 167.844C410.446 173.548 410.308 179.478 408.769 185.117C407.23 190.755 404.337 195.933 400.342 200.199L400.335 200.22Z" fill="#231AC7"/>
<path d="M414.442 299.388C413.534 299.393 412.633 299.218 411.792 298.874C410.951 298.53 410.186 298.024 409.541 297.384C408.895 296.744 408.382 295.984 408.031 295.146C407.679 294.308 407.496 293.409 407.492 292.501C407.488 291.592 407.663 290.692 408.007 289.851C408.351 289.01 408.857 288.245 409.497 287.599C410.136 286.954 410.897 286.441 411.735 286.089C412.573 285.738 413.471 285.555 414.38 285.551H414.442C416.277 285.551 418.037 286.28 419.335 287.577C420.632 288.875 421.361 290.635 421.361 292.47C421.361 294.305 420.632 296.064 419.335 297.362C418.037 298.66 416.277 299.388 414.442 299.388Z" fill="#231AC7"/>
<path d="M342.688 299.388C340.853 299.398 339.089 298.678 337.785 297.386C336.481 296.095 335.744 294.339 335.734 292.504C335.725 290.669 336.445 288.906 337.737 287.602C339.028 286.298 340.784 285.56 342.619 285.551H342.688C344.523 285.551 346.283 286.28 347.58 287.577C348.878 288.875 349.607 290.635 349.607 292.47C349.607 294.305 348.878 296.064 347.58 297.362C346.283 298.66 344.523 299.388 342.688 299.388Z" fill="#231AC7"/>
<path d="M342.618 299.423C340.79 299.423 339.037 298.7 337.74 297.411C336.444 296.123 335.71 294.374 335.699 292.546C335.691 291.296 336.021 290.068 336.655 288.992C337.289 287.915 338.202 287.03 339.298 286.43C340.394 285.831 341.632 285.539 342.881 285.587C344.129 285.634 345.341 286.019 346.389 286.7C347.436 287.38 348.28 288.332 348.83 289.454C349.38 290.576 349.616 291.825 349.514 293.07C349.411 294.315 348.973 295.509 348.246 296.526C347.519 297.542 346.531 298.342 345.386 298.842C344.514 299.228 343.571 299.426 342.618 299.423Z" fill="#231AC7"/>
<path d="M396.932 496.363H38.2409C31.779 496.365 25.5804 493.803 21.0053 489.24C16.4303 484.676 13.8526 478.484 13.8379 472.023V113.27C13.8635 106.818 16.447 100.639 21.0216 96.0889C25.5963 91.5389 31.7888 88.9889 38.2409 88.9981H217.517C219.352 88.9981 221.112 89.727 222.409 91.0246C223.707 92.3221 224.436 94.082 224.436 95.917V167.652C224.441 169.017 224.043 170.353 223.291 171.492C222.538 172.631 221.466 173.522 220.209 174.053C218.952 174.584 217.566 174.731 216.225 174.476C214.884 174.221 213.648 173.576 212.674 172.62C207.109 167.237 199.659 164.245 191.917 164.283C183.975 164.283 176.358 167.438 170.743 173.054C165.127 178.669 161.972 186.286 161.972 194.228C161.972 202.17 165.127 209.786 170.743 215.402C176.358 221.018 183.975 224.173 191.917 224.173C199.654 224.22 207.103 221.24 212.674 215.87C213.648 214.915 214.884 214.269 216.225 214.014C217.566 213.759 218.952 213.907 220.209 214.438C221.466 214.969 222.538 215.86 223.291 216.998C224.043 218.137 224.441 219.473 224.436 220.838V285.585H276.259C273.123 278.901 271.726 271.534 272.196 264.166C272.667 256.798 274.99 249.667 278.949 243.436C282.909 237.205 288.378 232.074 294.849 228.519C301.32 224.964 308.583 223.101 315.966 223.101C323.349 223.101 330.613 224.964 337.084 228.519C343.555 232.074 349.023 237.205 352.983 243.436C356.943 249.667 359.266 256.798 359.736 264.166C360.207 271.534 358.809 278.901 355.674 285.585H414.284C416.119 285.585 417.879 286.314 419.177 287.612C420.474 288.909 421.203 290.669 421.203 292.504V472.023C421.207 478.467 418.653 484.65 414.102 489.214C409.552 493.777 403.376 496.349 396.932 496.363ZM38.2409 102.836C35.4576 102.823 32.7828 103.914 30.8024 105.87C28.822 107.825 27.6977 110.486 27.6757 113.27V472.023C27.6885 474.815 28.8078 477.488 30.7881 479.457C32.7685 481.426 35.4485 482.529 38.2409 482.525H396.932C399.707 482.513 402.364 481.4 404.32 479.431C406.276 477.462 407.371 474.798 407.365 472.023V299.389H342.687C341.333 299.387 340.008 298.989 338.878 298.242C337.748 297.495 336.862 296.432 336.33 295.187C335.798 293.941 335.643 292.566 335.886 291.233C336.128 289.9 336.756 288.668 337.692 287.689C341.058 284.142 343.505 279.826 344.818 275.116C346.131 270.406 346.271 265.446 345.226 260.669C344.18 255.893 341.981 251.445 338.82 247.714C335.659 243.984 331.632 241.084 327.092 239.268C322.552 237.453 317.636 236.777 312.775 237.299C307.913 237.821 303.253 239.526 299.202 242.265C295.151 245.003 291.833 248.692 289.536 253.009C287.24 257.326 286.035 262.139 286.028 267.029C285.96 274.717 288.946 282.118 294.331 287.606C295.283 288.577 295.928 289.808 296.185 291.145C296.441 292.481 296.298 293.863 295.773 295.119C295.248 296.374 294.364 297.447 293.233 298.202C292.101 298.958 290.772 299.364 289.411 299.368H217.517C215.682 299.368 213.922 298.639 212.625 297.341C211.327 296.044 210.598 294.284 210.598 292.449V233.859C203.926 236.98 196.574 238.367 189.223 237.892C181.872 237.417 174.76 235.094 168.545 231.14C162.331 227.186 157.214 221.728 153.669 215.27C150.124 208.813 148.266 201.566 148.266 194.2C148.266 186.834 150.124 179.587 153.669 173.13C157.214 166.673 162.331 161.215 168.545 157.26C174.76 153.306 181.872 150.984 189.223 150.509C196.574 150.033 203.926 151.42 210.598 154.541V102.836H38.2409Z" fill="#231AC7"/>
<path d="M217.587 371.235C215.752 371.235 213.992 370.506 212.695 369.208C211.397 367.911 210.668 366.151 210.668 364.316V292.546C210.663 291.637 210.837 290.736 211.18 289.895C211.523 289.054 212.029 288.288 212.668 287.642C213.958 286.337 215.714 285.599 217.549 285.589C219.384 285.579 221.148 286.298 222.453 287.588C223.757 288.879 224.496 290.635 224.506 292.47V364.281C224.51 365.193 224.335 366.096 223.989 366.939C223.644 367.783 223.135 368.55 222.492 369.196C221.849 369.842 221.084 370.355 220.243 370.705C219.401 371.054 218.499 371.235 217.587 371.235Z" fill="#231AC7"/>
<path d="M217.634 496.086C215.799 496.086 214.039 495.357 212.741 494.06C211.444 492.762 210.715 491.003 210.715 489.168V417.322C210.715 415.486 211.444 413.727 212.741 412.429C214.039 411.132 215.799 410.403 217.634 410.403C219.469 410.403 221.229 411.132 222.526 412.429C223.824 413.727 224.553 415.486 224.553 417.322V489.168C224.553 491.003 223.824 492.762 222.526 494.06C221.229 495.357 219.469 496.086 217.634 496.086Z" fill="#231AC7"/>
<path d="M217.586 299.388H145.989C144.154 299.388 142.394 298.66 141.097 297.362C139.799 296.064 139.07 294.305 139.07 292.47C139.07 290.635 139.799 288.875 141.097 287.577C142.394 286.28 144.154 285.551 145.989 285.551H217.586C219.421 285.551 221.181 286.28 222.479 287.577C223.776 288.875 224.505 290.635 224.505 292.47C224.505 294.305 223.776 296.064 222.479 297.362C221.181 298.66 219.421 299.388 217.586 299.388Z" fill="#231AC7"/>
<path d="M92.817 299.43H20.9502C19.1152 299.43 17.3553 298.701 16.0578 297.404C14.7602 296.106 14.0313 294.346 14.0312 292.511C14.0312 290.676 14.7602 288.916 16.0578 287.619C17.3553 286.321 19.1152 285.592 20.9502 285.592H92.817C94.652 285.592 96.4118 286.321 97.7094 287.619C99.0069 288.916 99.7359 290.676 99.7359 292.511C99.7359 294.346 99.0069 296.106 97.7094 297.404C96.4118 298.701 94.652 299.43 92.817 299.43Z" fill="#231AC7"/>
<path d="M119.261 361.922C110.661 361.924 102.251 359.392 95.0826 354.642C87.9138 349.891 82.3041 343.133 78.9546 335.213C75.6051 327.292 74.6644 318.559 76.2501 310.107C77.8358 301.655 81.8775 293.857 87.8701 287.689C89.1539 286.395 90.8965 285.659 92.7193 285.643C94.5422 285.626 96.2979 286.33 97.605 287.6C98.9121 288.871 99.6649 290.606 99.6999 292.428C99.7349 294.251 99.0492 296.014 97.7918 297.334C93.6963 301.55 90.934 306.88 89.85 312.657C88.7659 318.434 89.4081 324.403 91.6964 329.817C93.9847 335.232 97.8176 339.852 102.716 343.101C107.615 346.349 113.362 348.083 119.24 348.084C127.187 348.084 134.81 344.931 140.434 339.317C146.059 333.702 149.226 326.086 149.241 318.139C149.296 310.387 146.287 302.927 140.869 297.382C140.19 296.744 139.646 295.975 139.271 295.121C138.897 294.268 138.698 293.348 138.688 292.416C138.678 291.483 138.856 290.559 139.212 289.697C139.568 288.836 140.094 288.055 140.759 287.402C141.424 286.749 142.215 286.237 143.083 285.897C143.95 285.557 144.878 285.396 145.81 285.424C146.742 285.451 147.658 285.666 148.505 286.057C149.351 286.447 150.11 287.005 150.735 287.696C158.707 295.83 163.143 306.784 163.079 318.173C163.049 329.779 158.421 340.9 150.208 349.1C141.995 357.3 130.867 361.911 119.261 361.922Z" fill="#231AC7"/>
<path d="M243.269 434.716C231.899 434.719 220.976 430.286 212.826 422.359C212.144 421.735 211.594 420.981 211.209 420.141C210.824 419.302 210.61 418.393 210.581 417.47C210.553 416.547 210.709 415.627 211.042 414.765C211.374 413.903 211.876 413.116 212.517 412.451C213.159 411.786 213.927 411.257 214.776 410.893C215.625 410.53 216.539 410.34 217.463 410.336C218.387 410.331 219.302 410.512 220.155 410.867C221.008 411.222 221.781 411.744 222.429 412.402C226.646 416.464 231.962 419.199 237.718 420.268C243.474 421.338 249.417 420.695 254.812 418.419C260.206 416.144 264.814 412.335 268.065 407.466C271.316 402.597 273.066 396.881 273.1 391.026C273.134 385.172 271.449 379.436 268.254 374.53C265.06 369.623 260.496 365.762 255.128 363.425C249.76 361.087 243.824 360.376 238.056 361.379C232.288 362.383 226.941 365.056 222.678 369.069C221.732 370.08 220.504 370.783 219.153 371.089C217.803 371.394 216.392 371.288 215.103 370.782C213.813 370.277 212.705 369.397 211.922 368.255C211.139 367.113 210.716 365.763 210.708 364.378V364.316C210.709 363.387 210.897 362.468 211.261 361.613C211.625 360.758 212.157 359.986 212.826 359.341C217.989 354.367 224.294 350.736 231.187 348.767C238.081 346.797 245.352 346.549 252.364 348.044C259.376 349.54 265.913 352.733 271.403 357.343C276.894 361.954 281.169 367.841 283.854 374.489C286.539 381.136 287.551 388.341 286.803 395.471C286.055 402.601 283.568 409.439 279.562 415.385C275.556 421.33 270.152 426.202 263.824 429.572C257.496 432.942 250.438 434.709 243.269 434.716Z" fill="#231AC7"/>
</svg>
